#!OML:ASF F:\VICON\USERDATA\INSTALL\rory3\rory3.ASF
:FULLY-SPECIFIED
:DEGREES
99
root 0.564148620187666 17.75088434661163 46.9975791934631 -2.069865764450001 -0.7203414499601934 2.795947442157359
lfemur 6.797989017601026 -3.117864529732687 -27.87913003135458
ltibia 16.183750864332332
lfoot -15.396038584984044 1.958866385533098
ltoes -0.8700554021670879
rfemur -28.963397556976982 3.416963535028485 17.297910087795856
rtibia 29.292452439731555
rfoot -9.862995476451257 -15.234707267756372
rtoes -0.44019664178690165
lowerback 9.579063669779522 -0.5961132430910759 -4.064787867460666
upperback 0.7199258948947499 -1.2058642073576782 0.8249190172328924
thorax -4.589345283954839 -0.5102764433987177 3.1777187170909444
lowerneck -16.63875494358622 -2.7819076762424166 -3.565494835552683
upperneck 20.172083197779575 -3.532270399828975 2.242968279576644
head 9.130878786429703 -1.666180741225252 0.862588567579713
lclavicle -2.0801905031180846e-15 7.91010571978039e-16
lhumerus -21.46916663356033 -4.70450133900992 82.27561916039835
lradius 27.30170502326412
lwrist 7.83185950824838
lhand -27.932977758566718 21.97248397790966
lfingers 7.12502
lthumb -1.3212010206444655 51.94404774652562
rclavicle -2.080190503118085e-15 7.91010571978039e-16
rhumerus -29.826860675811016 -16.412383375086748 -80.76080023297506
rradius 26.148188686465335
rwrist 5.391542551905113
rhand -16.589789823176933 23.27628924984523
rfingers 7.12502
rthumb 9.631130939000464 -6.481884464985922
100
root 0.4906365127148914 17.701044791471464 48.08854901380711 -1.6336307329870643 -0.09326067864861676 3.0974162262371645
lfemur 10.139960555913085 -3.172188793255275 -27.85019056088798
ltibia 14.259997305800699
lfoot -15.204034079878458 1.309254860648377
ltoes -3.246350973980612
rfemur -28.49506256261499 4.983621456438502 16.44584831612015
rtibia 22.329666765039327
rfoot -10.091445981713449 -16.126841931544877
rtoes -1.7848105419170026
lowerback 9.386191630362976 -0.8405476826114332 -4.497461073371381
upperback 0.6301779189198884 -1.5656542325303389 0.9255415009334791
thorax -4.5301225807894445 -0.6803411078432378 3.5864559507522675
lowerneck -16.70524166818689 -2.7689518195913143 -3.56908662912798
upperneck 20.210190144247182 -3.5131460522528037 2.3002514669329814
head 9.156889981744628 -1.6574259806922997 0.8817079249003167
lclavicle -1.869988862926334e-15 9.842632920472944e-16
lhumerus -20.00604342882766 -5.41508090356637 82.17179907832495
lradius 28.576509401292988
lwrist 8.354254875163376
lhand -28.231695964102364 21.773762452570598
lfingers 7.12502
lthumb -1.6097216036754547 51.740648057894454
rclavicle -1.869988862926334e-15 9.842632920472944e-16
rhumerus -30.296971712281945 -17.216717403053153 -80.24256795425784
rradius 25.36811376758342
rwrist 6.216728835950476
rhand -16.67133035246166 23.993355895312025
rfingers 7.12502
rthumb 9.552456728600522 -5.770150964527126
101
root 0.41664627465588033 17.639881850866992 48.835282925548654 -1.4224284738765918 0.3032573521870243 3.1190168131026215
lfemur 12.781428256023027 -3.6408814467144186 -27.699305203123306
ltibia 13.838893095955438
lfoot -14.930281307075582 0.6657601161730835
ltoes -6.597522385216247
rfemur -28.266895741234393 5.625150532153806 16.426001686774427
rtibia 19.406868799074285
rfoot -9.880715916423021 -15.11665444481515
rtoes -2.8273625217003366
lowerback 9.296155563880728 -1.0221679858308406 -4.687093439406093
upperback 0.5755664624332395 -1.8182565786018703 1.0780487213128733
thorax -4.505371175631649 -0.8004030270333087 3.8728173036973605
lowerneck -16.80299796899616 -2.7481006320370387 -3.5557735922197398
upperneck 20.294951464798388 -3.4756526243023997 2.251870247063632
head 9.201356203526688 -1.644812053273233 0.8689815532883087
lclavicle -1.793521199761523e-15 1.0540904680601826e-15
lhumerus -19.038646467096136 -5.769980837745406 82.1709819126797
lradius 29.63206710708331
lwrist 8.63695232312698
lhand -28.78866781001731 21.23299258638792
lfingers 7.12502
lthumb -2.1476263193363963 51.19372226137239
rclavicle -1.793521199761523e-15 1.0540904680601826e-15
rhumerus -30.834509135051945 -18.42065307459185 -79.52560020699713
rradius 24.433398147992058
rwrist 7.253326880820202
rhand -16.863051958593953 24.392761041952763
rfingers 7.12502
rthumb 9.36746473733542 -5.380470751474681
102
root 0.3492453918324544 17.589490840666663 49.15903813662166 -1.41645094224052 0.409097308099704 2.785684865541143
lfemur 14.405576395099043 -4.381326480239686 -27.306618478900592
ltibia 15.24250464534266
lfoot -14.058626214883496 -0.13439243207029072
ltoes -10.472838087361842
rfemur -28.22218228185355 5.456114119132172 17.326010909562616
rtibia 20.28882428745192
rfoot -8.745972389188918 -12.606553082187919
rtoes -2.7909253188215044
lowerback 9.276209220516035 -1.1341772857086756 -4.515066599425279
upperback 0.547416952524304 -1.9398221312705628 1.3010698081083267
thorax -4.509543969647229 -0.8614131236975231 4.004913332994716
lowerneck -16.894689955313666 -2.708113833146791 -3.504776018957613
upperneck 20.439449808186165 -3.4046025303818634 2.0819268665938364
head 9.262180457377374 -1.6223682361113552 0.8224122945428838
lclavicle -1.78441263101475e-15 1.0628887397455336e-15
lhumerus -18.643280263781204 -5.687627329398724 82.27512536429168
lradius 30.40851752334475
lwrist 8.712774254944728
lhand -29.472262864885153 20.593235268611295
lfingers 7.12502
lthumb -2.8077979440593213 50.5466991066744
rclavicle -1.78441263101475e-15 1.0628887397455336e-15
rhumerus -31.408249062905867 -19.940994405407054 -78.5880629080245
rradius 23.42381035700289
rwrist 8.560943379375248
rhand -17.077128269176516 24.442666344037303
rfingers 7.12502
rthumb 9.1609035160808 -5.3405732494928415
103
root 0.2958417545014224 17.570421040471434 48.91600063880189 -1.5665523137777595 0.2591144145620192 2.0528318538494337
lfemur 14.621163377992012 -5.093370149869143 -26.514146104485604
ltibia 18.533051274294067
lfoot -11.843338196157152 -1.568127150936912
ltoes -13.881865601423081
rfemur -28.071760557094017 4.970376105779685 18.853531086593996
rtibia 23.46340284784633
rfoot -6.9705465744600605 -9.56185268044702
rtoes -1.2761635607158817
lowerback 9.274292729193702 -1.1987476299211917 -3.9431554104345263
upperback 0.5163267207834452 -1.9524609767183279 1.58365207929571
thorax -4.543319293808521 -0.875556141038935 3.944336466534266
lowerneck -16.89934919589339 -2.6454005510874308 -3.4091852971220202
upperneck 20.644233615022447 -3.297471783304385 1.8013564856273165
head 9.324448804034267 -1.5892137786861875 0.7483063164211607
lclavicle -1.8923968224141198e-15 9.651181915079839e-16
lhumerus -18.918917611044574 -5.1268289810168906 82.46306669236908
lradius 30.817620960478987
lwrist 8.589760351694803
lhand -30.034175273175247 20.15626376388018
lfingers 7.12502
lthumb -3.350449423520403 50.10309569833104
rclavicle -1.8923968224141198e-15 9.651181915079839e-16
rhumerus -32.002070069115035 -21.66431381556144 -77.49587436961872
rradius 22.418032429594604
rwrist 10.0311816634074
rhand -17.24103519871388 24.21704141807262
rfingers 7.12502
rthumb 9.002751648195025 -5.5733159853298355
104
root 0.26097055470561953 17.594286724110823 48.36334521185906 -1.8092170863622965 0.02758073479896339 1.005435515191889
lfemur 13.32470398215283 -5.447547016246913 -25.089970779852003
ltibia 23.93580273404112
lfoot -7.689462007481417 -3.844734493395636
ltoes -15.29975175924703
rfemur -27.247249139204484 4.609866013165046 20.77137433324956
rtibia 27.31377512149637
rfoot -5.393281581892733 -6.917367195561813
rtoes 1.5231077637223114
lowerback 9.291319097884202 -1.2129891967690134 -2.977269869187623
upperback 0.4729349794504697 -1.8546901400105416 1.9055482958804237
thorax -4.604720892708242 -0.8420752654917467 3.7300650747584396
lowerneck -16.748797961618042 -2.5759527367107493 -3.289119899659738
upperneck 20.878104699399103 -3.1808319459748002 1.4895710768887302
head 9.367449136289627 -1.5546847979953997 0.6705318334085191
lclavicle -1.9069329637866253e-15 9.534696736194835e-16
lhumerus -19.759996282248615 -4.215183659844674 82.7427992519611
lradius 30.894955993875868
lwrist 8.36889249488824
lhand -30.17727487303657 20.17817769144497
lfingers 7.12502
lthumb -3.4886295207162608 50.121901585364
rclavicle -1.9069329637866257e-15 9.534696736194835e-16
rhumerus -32.505617026356525 -23.21296500692317 -76.42580744878622
rradius 21.609228197321634
rwrist 11.375605942311395
rhand -17.316675344213493 23.911217591991303
rfingers 7.12502
rthumb 8.92976787305734 -5.8827942413022365
